<svg width="163" height="65" viewBox="0 0 163 65" fill="none" xmlns="http://www.w3.org/2000/svg">
<path d="M152.494 45.713C152.6 45.713 152.699 45.7097 152.795 45.7031C152.891 45.6965 152.974 45.6768 153.047 45.6438C153.12 45.6142 153.18 45.5648 153.223 45.4957C153.266 45.4299 153.289 45.3377 153.289 45.216C153.289 45.1139 153.269 45.0349 153.229 44.9757C153.19 44.9165 153.14 44.8704 153.077 44.8375C153.014 44.8046 152.941 44.7815 152.862 44.7716C152.782 44.7618 152.699 44.7552 152.623 44.7552H152V45.713H152.494ZM152.699 44.38C153.06 44.38 153.325 44.4491 153.501 44.5939C153.673 44.7354 153.759 44.9527 153.759 45.2423C153.759 45.5122 153.683 45.7097 153.531 45.838C153.378 45.9631 153.19 46.0388 152.964 46.0618L153.829 47.3915H153.322L152.497 46.098H151.997V47.3915H151.526V44.3833H152.699V44.38ZM150.562 46.7497C150.672 47.0196 150.821 47.25 151.013 47.4475C151.205 47.645 151.43 47.7996 151.692 47.9116C151.954 48.0235 152.235 48.0794 152.54 48.0794C152.842 48.0794 153.12 48.0235 153.378 47.9116C153.637 47.7996 153.862 47.645 154.054 47.4475C154.246 47.25 154.396 47.0196 154.505 46.7497C154.614 46.4798 154.667 46.1869 154.667 45.8709C154.667 45.5648 154.611 45.2785 154.505 45.0119C154.396 44.7453 154.246 44.5149 154.054 44.3207C153.862 44.1265 153.637 43.9719 153.378 43.86C153.12 43.748 152.842 43.6921 152.54 43.6921C152.235 43.6921 151.95 43.748 151.692 43.86C151.43 43.9719 151.205 44.1265 151.013 44.3207C150.821 44.5149 150.672 44.7453 150.562 45.0119C150.453 45.2752 150.4 45.5648 150.4 45.8709C150.4 46.1869 150.456 46.4798 150.562 46.7497ZM150.138 44.8605C150.277 44.5478 150.463 44.2779 150.705 44.0476C150.943 43.8172 151.218 43.6394 151.536 43.5078C151.854 43.3761 152.189 43.3103 152.544 43.3103C152.898 43.3103 153.233 43.3761 153.547 43.5078C153.862 43.6394 154.137 43.8172 154.372 44.0476C154.608 44.2779 154.796 44.5478 154.932 44.8605C155.071 45.1732 155.141 45.5122 155.141 45.8709C155.141 46.2429 155.071 46.5852 154.932 46.9011C154.793 47.2171 154.608 47.487 154.372 47.7207C154.137 47.9543 153.862 48.1321 153.547 48.2604C153.233 48.3888 152.898 48.4546 152.544 48.4546C152.189 48.4546 151.851 48.3921 151.536 48.2604C151.222 48.1321 150.943 47.951 150.705 47.7207C150.466 47.4903 150.277 47.2171 150.138 46.9011C149.999 46.5852 149.929 46.2429 149.929 45.8709C149.929 45.5122 149.999 45.1732 150.138 44.8605Z" fill="black"/>
<path d="M79.9262 42.889C79.3729 43.3663 78.5877 43.6756 77.8886 43.6789C77.004 43.6822 76.2486 43.1951 76.2453 41.9247C76.2353 38.7716 80.5557 35.9411 83.4348 35.9608C82.7987 38.4392 82.305 40.8451 79.9262 42.889ZM134.186 43.2149C130.051 42.0399 127.92 39.4364 127.092 37.0864C128.447 35.9575 130.127 34.957 131.777 33.8708C132.734 33.2389 132.999 32.5905 133.384 31.59C133.848 30.3821 134.315 28.6739 134.338 27.8148C134.358 27.1928 134.308 26.7122 133.51 26.7386C132.741 26.7649 130.071 28.483 129.418 28.924C125.767 31.3958 122.656 34.4139 119.966 37.8895C121.181 32.9953 122.573 25.7775 123.166 22.1143C123.358 20.9327 123.676 19.3233 123.02 18.2306C122.513 17.3913 121.089 15.7423 119.969 15.1104C118.895 14.5081 118.342 15.2223 118.143 16.1932C117.424 19.7215 117.02 21.6634 116.43 24.5499C115.589 28.6541 114.84 31.9224 112.975 36.517C111.925 39.104 109.556 43.6723 106.889 43.6822C104.288 43.6921 105.222 37.4254 105.215 35.7271C105.212 35.1248 105.116 33.6569 103.681 33.3376C98.884 32.2647 98.1617 30.7178 97.2142 30.8856C96.6244 30.9909 96.2799 31.5274 96.038 32.3206C95.0838 35.4737 94.557 38.3141 92.6917 41.1282C91.8237 42.4348 90.2201 43.985 88.9909 43.9883C87.7551 43.9916 87.3344 42.8956 87.3344 41.7996C87.3344 38.7222 88.1958 35.5856 88.5901 33.828C88.8849 32.5181 88.1726 32.2844 87.4901 32.0869C86.6154 31.8335 85.5254 31.7973 85.1245 31.7973C81.4038 31.8105 77.9549 32.9986 75.0791 35.342C73.8764 36.3229 72.9123 37.5209 71.9216 38.7025C70.8316 40.0058 67.6079 43.9521 65.6764 43.9587C64.3345 43.962 64.1854 42.4579 64.1821 41.4277C64.1656 36.8758 66.3887 29.9377 68.0254 25.7841C69.1121 23.0227 70.2651 20.5246 70.6196 19.0534C70.9111 17.8389 70.5864 16.756 69.9106 15.8509C69.0061 14.6397 68.0055 13.7906 67.101 13.3759C66.4649 13.0829 65.8486 13.2574 65.4179 13.8597C64.7089 14.8537 63.7812 16.8745 63.4135 17.6677C60.5443 23.8521 58.3841 31.0634 58.4106 37.8994C58.4239 41.5659 58.8347 48.2769 63.8873 48.2571C66.6703 48.2473 69.1055 46.5687 70.8813 44.5511C71.2292 46.9242 73.121 48.2637 75.7549 48.2571C78.6573 48.2473 81.2978 46.5983 83.0704 44.4129C83.6468 46.8287 85.5519 48.2637 88.0368 48.2571C94.0104 48.2341 97.5554 41.7074 99.1391 36.8198C99.328 36.9416 99.6427 37.0272 99.6427 37.0272C99.5963 37.59 99.5599 38.449 99.5599 39.1271C99.5665 42.968 100.488 48.2769 105.524 48.2604C109.821 48.244 112.584 44.2878 114.562 41.0163H114.681C114.333 43.2412 113.876 45.0448 113.724 47.3191C113.657 48.2966 115.055 48.2078 115.678 48.2078C118.746 48.2078 118.62 47.4837 119.439 44.8835C119.979 43.1786 121.268 41.9082 122.55 40.7233C123.199 42.0925 124.637 44.4162 126.764 46.1902C128.073 47.2829 129.912 48.2242 131.515 48.2209C132.211 48.2176 132.555 48.1288 133.086 47.7207C134.192 46.8682 135.06 45.0481 135.16 44.3964C135.249 43.7777 134.729 43.3695 134.186 43.2149Z" fill="black"/>
<path d="M150.105 39.7952C150.287 42.6455 148.127 44.7354 145.218 46.2955C142.164 47.9346 138.642 48.8035 136.011 48.5764C135.448 48.527 135.083 48.1419 135.206 47.3158C135.322 46.5457 135.58 45.8611 135.869 45.3015C136.269 44.5248 136.856 43.9982 137.989 43.8698C138.695 43.7908 140.143 43.7612 141.358 43.386C142.777 42.9483 144.264 42.2867 144.264 41.1084C144.264 39.0217 135.034 40.2099 135.034 36.1122C135.034 31.9586 141.922 30.0101 144.599 29.263C145.805 28.9273 147.186 28.7463 147.72 28.7463C148.366 28.7463 148.637 29.161 148.518 29.7238C148.25 30.9679 147.68 32.4885 146.292 32.8341C145.679 32.9888 142.409 33.6339 141.332 34.1539C140.997 34.3152 140.808 34.5456 140.812 34.776C140.812 35.0656 141.166 35.2367 141.753 35.3881C144.128 35.9937 149.883 36.2998 150.105 39.7952Z" fill="black"/>
<path d="M56.9661 48.1354C56.0351 48.1354 55.1571 48.0235 54.236 47.905C51.0156 47.4903 48.0603 47.2533 45.1414 47.2533C39.1844 47.2533 34.5328 47.8194 29.2649 48.6126C25.1499 49.2314 21.6778 49.6691 18.4806 49.7646C13.9648 49.9028 9.24023 49.001 9.24023 43.5308C9.24023 37.1161 16.39 29.2103 23.1289 23.8521C29.6525 18.665 36.8255 14.9886 41.4639 13.1323C44.5583 11.8915 48.3419 10.7659 50.7009 10.7659C52.9737 10.7659 52.6192 12.7604 50.9494 15.6074C49.379 18.2898 48.6699 18.9744 46.4733 19.2476C42.6566 19.7248 37.1833 20.1856 26.7833 28.0814C20.8627 32.5741 15.4855 38.8012 15.5783 42.0102C15.6379 44.041 17.1553 44.6926 19.014 44.6926C21.7407 44.6926 24.8319 44.1134 28.7381 43.4058C34.8674 42.2966 42.5042 40.7233 48.9317 40.7233C50.6645 40.7233 52.2879 40.9109 53.7556 41.2829C54.8821 41.5692 55.601 42.2143 56.3332 43.1688C56.9296 43.9455 57.4564 44.844 57.8606 45.6603C58.2284 46.4041 58.5398 47.1545 58.3013 47.6318C58.1455 47.9412 57.7877 48.1354 56.9661 48.1354Z" fill="black"/>
</svg>
