<svg width="100" height="100" viewBox="0 0 100 100" fill="none" xmlns="http://www.w3.org/2000/svg">
<g opacity="0.4">
<path d="M54.138 6.18874C55.4647 7.27958 56.6905 8.43186 57.8596 9.68758C58.1823 10.0291 58.5055 10.3702 58.8287 10.7112C59.0477 10.9448 59.2646 11.1805 59.4795 11.418C60.6841 12.8195 60.6841 12.8195 62.2927 13.6006C62.9107 13.5574 63.4624 13.4348 64.0623 13.281C64.5573 13.2004 65.0527 13.123 65.5485 13.0483C65.8116 13.0051 66.0746 12.9612 66.3374 12.9167C66.4695 12.8944 66.6017 12.8721 66.7378 12.8491C67.0036 12.8036 67.2694 12.7576 67.5351 12.711C70.5791 12.1805 73.4193 11.8775 76.2206 13.4397C79.2263 15.8306 79.596 18.7532 80.139 22.3753C80.2398 23.0223 80.3416 23.6692 80.4437 24.3161C80.5065 24.7163 80.5682 25.1167 80.6289 25.5173C80.6564 25.6973 80.6839 25.8774 80.7122 26.063C80.736 26.2212 80.7598 26.3793 80.7843 26.5423C80.8557 26.9882 80.8557 26.9882 81.0545 27.5388C81.4271 27.8005 81.4271 27.8005 81.8983 28.0264C82.0774 28.1182 82.2565 28.21 82.4411 28.3046C82.6361 28.4024 82.8311 28.5001 83.0321 28.6008C83.2319 28.7035 83.4317 28.8062 83.6376 28.912C84.6819 29.4482 85.731 29.9744 86.7827 30.496C86.9808 30.5958 87.1789 30.6957 87.383 30.7985C87.7587 30.9878 88.1359 31.1743 88.5146 31.3573C90.5325 32.3783 91.9525 33.8157 92.7733 35.9373C93.0024 36.746 93.0265 37.5428 93.0418 38.3787C93.0491 38.5232 93.0564 38.6677 93.064 38.8166C93.106 41.5537 91.1487 44.2826 89.9101 46.6454C89.6679 47.1085 89.4297 47.5735 89.192 48.039C89.1172 48.1794 89.0424 48.3198 88.9652 48.4645C88.5333 49.3195 88.3613 49.8325 88.6717 50.781C88.9329 51.3889 89.2281 51.9755 89.5316 52.5632C89.6598 52.8167 89.6598 52.8167 89.7906 53.0753C90.0632 53.6134 90.3377 54.1504 90.6126 54.6873C90.8866 55.2243 91.16 55.7615 91.4325 56.2993C91.6019 56.6332 91.772 56.9667 91.9431 57.2997C93.0206 59.4191 93.3525 61.5403 92.8343 63.8898C91.8731 66.4612 89.9418 67.8889 87.5731 69.0794C87.3783 69.1816 87.1834 69.2838 86.9827 69.3892C85.9954 69.9044 85.0105 70.3811 83.9774 70.7975C82.1545 71.5091 82.1545 71.5091 80.8191 72.8603C80.4609 73.8543 80.3939 74.8796 80.325 75.9271C80.235 77.0324 80.0515 78.1237 79.8709 79.217C79.8112 79.5907 79.7587 79.9654 79.7064 80.3402C79.3264 82.8309 78.4138 84.9642 76.367 86.5232C73.1909 88.3178 69.9107 87.7054 66.4793 87.1091C65.9831 87.0247 65.4868 86.9411 64.9903 86.8584C64.6849 86.8074 64.3797 86.7552 64.0747 86.7019C63.6811 86.6352 63.2858 86.5788 62.8905 86.5232C62.6934 86.4898 62.4964 86.4565 62.2933 86.4221C61.3659 86.5853 60.8971 87.2161 60.2698 87.8851C60.1335 88.0249 59.9972 88.1647 59.8567 88.3087C59.4206 88.7566 58.9885 89.2081 58.557 89.6604C53.6129 94.8216 53.6129 94.8216 50.0243 95.0071C46.964 94.8858 44.8945 93.2158 42.8839 91.094C42.7569 90.9605 42.6298 90.8271 42.4989 90.6896C41.9709 90.1331 41.4442 89.5759 40.9267 89.0095C39.5238 87.3598 39.5238 87.3598 37.6773 86.3676C37.0593 86.4109 36.5317 86.5447 35.9373 86.7185C35.4427 86.8007 34.9472 86.8779 34.4511 86.9512C34.1881 86.9944 33.9251 87.0383 33.6623 87.0828C33.4641 87.1163 33.4641 87.1163 33.2619 87.1505C32.996 87.1959 32.7303 87.242 32.4646 87.2886C29.4206 87.8191 26.5803 88.122 23.7791 86.5598C20.7734 84.1689 20.4037 81.2463 19.8607 77.6243C19.7599 76.9772 19.6581 76.3303 19.556 75.6835C19.4932 75.2832 19.4314 74.8828 19.3708 74.4823C19.3295 74.2122 19.3295 74.2122 19.2875 73.9366C19.2637 73.7784 19.2399 73.6202 19.2154 73.4572C19.144 73.0114 19.144 73.0114 18.9452 72.4607C18.5726 72.1991 18.5726 72.1991 18.1013 71.9732C17.9222 71.8814 17.7431 71.7895 17.5586 71.6949C17.3635 71.5972 17.1685 71.4994 16.9676 71.3987C16.6681 71.2449 16.6681 71.2449 16.3626 71.088C15.3152 70.5505 14.2635 70.0223 13.2101 69.4967C13.0111 69.396 12.8122 69.2952 12.6071 69.1915C12.2287 69 11.849 68.811 11.4679 68.6251C9.84165 67.7994 8.56729 66.7351 7.72689 65.0877C7.58829 64.8233 7.58829 64.8233 7.44689 64.5536C7.01538 63.592 6.97706 62.6652 6.95785 61.6209C6.95055 61.4763 6.94325 61.3318 6.93572 61.1829C6.89369 58.4458 8.85101 55.717 10.0896 53.3541C10.3318 52.891 10.57 52.426 10.8076 51.9605C10.8825 51.8201 10.9573 51.6797 11.0344 51.5351C11.4664 50.6801 11.6384 50.167 11.328 49.2185C11.0668 48.6106 10.7716 48.0241 10.4681 47.4363C10.3826 47.2673 10.2971 47.0984 10.209 46.9243C9.93652 46.3862 9.66194 45.8492 9.38705 45.3123C9.11313 44.7753 8.83968 44.238 8.56715 43.7003C8.39782 43.3664 8.22765 43.0329 8.05653 42.6999C7.33818 41.2868 6.95452 40.1114 6.95785 38.5252C6.95816 38.3695 6.95848 38.2138 6.9588 38.0535C6.98429 36.8266 7.19505 35.8398 7.81234 34.7654C7.98757 34.4572 7.98757 34.4572 8.16635 34.1428C9.37843 32.5844 10.6849 31.7698 12.451 30.8958C12.6861 30.7748 12.921 30.6534 13.1556 30.5315C14.2134 29.9852 15.2702 29.4651 16.3779 29.025C18.0065 28.3924 18.0065 28.3924 19.1587 27.1502C19.5054 26.1515 19.5866 25.1238 19.6684 24.0756C19.7688 22.9702 19.9496 21.877 20.1292 20.7823C20.1885 20.4087 20.241 20.034 20.2932 19.6594C20.6735 17.1686 21.5858 15.0354 23.6327 13.4763C26.8088 11.6817 30.089 12.2942 33.5204 12.8904C34.0166 12.9748 34.5129 13.0585 35.0094 13.1412C35.3148 13.1922 35.62 13.2443 35.925 13.2977C36.3186 13.3644 36.7139 13.4207 37.1092 13.4763C37.4048 13.5264 37.4048 13.5264 37.7064 13.5775C38.6338 13.4143 39.1026 12.7834 39.7299 12.1145C39.9344 11.9048 39.9344 11.9048 40.143 11.6908C40.5791 11.2429 41.0112 10.7914 41.4427 10.3391C45.0692 6.5534 48.7495 3.33599 54.138 6.18874ZM49.2911 11.7513C49.1877 11.8582 49.0843 11.9651 48.9778 12.0752C48.859 12.196 48.7403 12.3167 48.6179 12.4411C48.4281 12.6397 48.4281 12.6397 48.2344 12.8423C48.1014 12.9778 47.9684 13.1133 47.8314 13.2529C47.4049 13.6877 46.9809 14.125 46.5575 14.5628C41.3691 19.9165 41.3691 19.9165 37.9675 19.9705C36.2018 19.9565 34.4865 19.6344 32.7513 19.3357C32.2552 19.2512 31.759 19.1673 31.2625 19.0849C30.9564 19.0341 30.6505 18.982 30.3449 18.9284C29.3961 18.7697 28.5011 18.6787 27.5389 18.7498C27.1295 19.0526 26.9766 19.2571 26.8298 19.7463C26.8062 19.9045 26.7827 20.0627 26.7585 20.2256C26.7304 20.4057 26.7023 20.5858 26.6734 20.7713C26.6453 20.966 26.6172 21.1607 26.5883 21.3613C26.5234 21.776 26.4586 22.1906 26.3937 22.6053C26.2948 23.2569 26.1968 23.9087 26.0995 24.5607C25.1497 30.8669 25.1497 30.8669 23.0467 32.617C21.1866 33.8872 19.0763 34.8111 17.0559 35.7921C16.0869 36.2672 15.1259 36.7531 14.2004 37.309C13.9893 37.4349 13.9893 37.4349 13.7738 37.5634C13.423 37.8867 13.423 37.8867 13.4025 38.4479C13.4807 39.0978 13.6359 39.519 13.9342 40.0991C14.032 40.2919 14.1298 40.4848 14.2306 40.6834C14.3362 40.8856 14.4418 41.0878 14.5506 41.2962C14.7103 41.6093 14.7103 41.6093 14.8733 41.9287C15.4061 42.9689 15.9525 44.0008 16.5144 45.0255C17.7129 47.2174 18.4516 49.3181 17.8556 51.8464C17.2156 53.9895 16.0703 55.928 15.019 57.8901C14.7642 58.3672 14.5123 58.8457 14.2607 59.3244C14.182 59.4691 14.1033 59.6138 14.0222 59.7628C13.603 60.563 13.3144 61.1831 13.4764 62.1091C14.6967 63.5348 17.3254 64.3379 19.0016 65.144C23.9254 67.5186 23.9254 67.5186 25.0022 70.2228C25.7354 72.4856 26.0223 74.8245 26.3676 77.1709C26.4511 77.7338 26.5375 78.2963 26.6241 78.8587C26.6486 79.0314 26.673 79.2042 26.6982 79.3821C26.7354 79.622 26.7354 79.622 26.7733 79.8667C26.794 80.0069 26.8146 80.1471 26.8359 80.2916C26.982 80.7561 27.1515 80.9571 27.5389 81.2498C28.6524 81.332 29.6932 81.1853 30.7883 80.9934C31.1098 80.94 31.4314 80.8866 31.753 80.8332C32.251 80.7491 32.7489 80.6643 33.2466 80.5786C39.2988 79.543 39.2988 79.543 41.8944 81.1765C43.3764 82.2529 44.6792 83.5275 45.9509 84.8402C46.0554 84.9475 46.1598 85.0548 46.2674 85.1654C46.6988 85.6092 47.13 86.0531 47.5567 86.5015C47.8733 86.8334 48.1934 87.1615 48.5144 87.4891C48.61 87.5914 48.7057 87.6937 48.8042 87.7991C49.2178 88.2159 49.4865 88.4646 50.0815 88.5213C50.8478 88.1562 51.3557 87.595 51.9369 86.9855C52.0653 86.8547 52.1937 86.7238 52.326 86.589C52.7366 86.1701 53.1446 85.7488 53.5521 85.3269C58.4486 80.2684 58.4486 80.2684 61.4555 80.0382C63.4283 80.0069 65.3118 80.3305 67.2484 80.6638C67.7445 80.7483 68.2407 80.8322 68.7372 80.9146C69.0433 80.9655 69.3492 81.0176 69.6548 81.0711C70.6036 81.2298 71.4986 81.3209 72.4608 81.2498C72.8702 80.9469 73.0231 80.7424 73.1699 80.2532C73.2052 80.016 73.2052 80.016 73.2412 79.7739C73.2693 79.5938 73.2973 79.4137 73.3263 79.2282C73.3544 79.0335 73.3825 78.8388 73.4114 78.6382C73.4762 78.2236 73.5411 77.8089 73.606 77.3943C73.7049 76.7426 73.8029 76.0908 73.9002 75.4389C74.8496 69.1354 74.8496 69.1354 76.953 67.3826C78.2348 66.5008 79.6433 65.8395 81.0332 65.1479C81.1534 65.0881 81.2736 65.0282 81.3974 64.9666C82.007 64.6634 82.6175 64.3622 83.2298 64.0645C84.9787 63.2424 84.9787 63.2424 86.5233 62.1091C86.6291 61.2011 86.437 60.6239 86.0228 59.8219C85.9161 59.6123 85.8094 59.4028 85.6995 59.1869C85.5847 58.9669 85.4698 58.7469 85.3514 58.5203C85.2359 58.2941 85.1204 58.0679 85.0014 57.8349C84.6643 57.1753 84.3246 56.5171 83.9842 55.8591C83.6772 55.2619 83.3723 54.6637 83.0687 54.0647C82.9511 53.8364 82.8335 53.608 82.7124 53.3727C82.2116 52.2726 81.9719 51.2686 81.9579 50.0608C81.9523 49.8465 81.9468 49.6323 81.9411 49.4115C82.1129 47.0235 83.5161 44.8215 84.6068 42.7488C84.7711 42.4335 84.9353 42.1182 85.0993 41.8027C85.397 41.2305 85.6957 40.6587 85.9955 40.0876C86.5645 39.0476 86.5645 39.0476 86.5233 37.8904C85.0389 36.5085 82.8083 35.7261 80.9981 34.8556C76.0742 32.4809 76.0742 32.4809 74.9975 29.7767C74.2643 27.514 73.9774 25.1751 73.6321 22.8286C73.5486 22.2657 73.4622 21.7033 73.3755 21.1408C73.3511 20.9681 73.3267 20.7954 73.3015 20.6174C73.2767 20.4575 73.2519 20.2976 73.2263 20.1329C73.2057 19.9926 73.1851 19.8524 73.1638 19.7079C73.0177 19.2434 72.8482 19.0424 72.4608 18.7498C71.3473 18.6675 70.3065 18.8143 69.2114 19.0061C68.8899 19.0596 68.5683 19.113 68.2467 19.1663C67.7487 19.2505 67.2508 19.3353 66.7531 19.421C60.7009 20.4566 60.7009 20.4566 58.1053 18.823C56.6242 17.7476 55.3203 16.4708 54.0419 15.1662C53.937 15.0594 53.8321 14.9525 53.724 14.8424C53.2909 14.4004 52.8583 13.9579 52.4283 13.5128C52.1093 13.1833 51.788 12.8563 51.4662 12.5295C51.3212 12.3776 51.3212 12.3776 51.1733 12.2226C50.8696 11.9076 50.8696 11.9076 50.3905 11.5232C49.6498 11.4473 49.6498 11.4473 49.2911 11.7513Z" fill="#999999"/>
<path d="M66.0414 37.2369C66.7749 37.6068 67.2795 38.1208 67.6443 38.8566C67.9758 39.8884 67.9552 40.8239 67.495 41.803C66.8684 42.8675 65.9603 43.6914 65.09 44.556C64.8951 44.7517 64.7003 44.9475 64.5056 45.1435C63.9791 45.6726 63.4508 46.1999 62.9221 46.7268C62.368 47.2794 61.8154 47.8334 61.2625 48.3872C60.3344 49.3163 59.4051 50.2442 58.4751 51.1714C57.4005 52.2429 56.3281 53.3164 55.2566 54.391C54.3355 55.3148 53.4131 56.2375 52.4899 57.1593C51.9389 57.7093 51.3884 58.2597 50.8389 58.8111C50.3226 59.3291 49.8049 59.8457 49.286 60.3612C49.0054 60.6406 48.7263 60.9215 48.4472 61.2024C48.2794 61.3686 48.1115 61.5348 47.9386 61.706C47.7936 61.8508 47.6486 61.9955 47.4992 62.1447C46.7741 62.7452 46.0722 62.9491 45.1414 62.964C44.9848 62.9695 44.8282 62.975 44.6668 62.9807C43.4561 62.7737 42.5577 61.9674 41.7129 61.125C41.6165 61.0296 41.5201 60.9342 41.4208 60.8359C41.1062 60.5239 40.7937 60.2097 40.4814 59.8954C40.2615 59.6759 40.0415 59.4565 39.8215 59.2372C39.3622 58.7788 38.904 58.3193 38.4465 57.8591C37.8616 57.2709 37.2741 56.6853 36.6858 56.1005C36.2317 55.6485 35.7789 55.1951 35.3266 54.7413C35.1106 54.5248 34.8941 54.3088 34.6772 54.0933C34.3738 53.7914 34.0725 53.4878 33.7715 53.1835C33.6 53.0115 33.4284 52.8395 33.2517 52.6623C32.4025 51.6693 32.1041 50.8011 32.1447 49.5187C32.3136 48.4945 32.8246 47.7393 33.6531 47.1299C34.2569 46.8376 34.6707 46.7905 35.3391 46.7896C35.5343 46.7859 35.7294 46.7821 35.9304 46.7782C37.3908 47.0169 38.3971 48.307 39.3904 49.3134C39.6285 49.5524 39.6285 49.5524 39.8714 49.7962C40.3757 50.3027 40.8787 50.8105 41.3816 51.3184C41.7244 51.6631 42.0672 52.0077 42.4101 52.3522C43.2483 53.1948 44.0854 54.0384 44.9217 54.8829C45.5433 54.6084 45.9591 54.2838 46.4367 53.8028C46.5796 53.6599 46.7225 53.5169 46.8698 53.3697C47.0246 53.2128 47.1795 53.0559 47.339 52.8943C47.5036 52.7291 47.6682 52.564 47.8378 52.3938C48.2884 51.9413 48.7382 51.488 49.1876 51.0343C49.6585 50.5595 50.1307 50.086 50.6027 49.6124C51.8026 48.4081 53.0009 47.2022 54.199 45.9962C55.4925 44.6941 56.7862 43.3923 58.0819 42.0924C58.5517 41.621 59.0211 41.1491 59.4895 40.6763C60.0118 40.1494 60.5353 39.6236 61.059 39.0981C61.2913 38.8628 61.2913 38.8628 61.5282 38.6227C61.7426 38.4083 61.7426 38.4083 61.9613 38.1895C62.0849 38.0651 62.2085 37.9406 62.3358 37.8124C63.3774 36.907 64.7442 36.8401 66.0414 37.2369Z" fill="#999999"/>
</g>
</svg>
