<svg width="254" height="68" viewBox="0 0 254 68" fill="none" xmlns="http://www.w3.org/2000/svg">
<path d="M248.629 60.2166C248.812 60.2166 248.984 60.2109 249.151 60.1996C249.317 60.1883 249.46 60.1542 249.586 60.0975C249.712 60.0465 249.815 59.9614 249.89 59.8423C249.964 59.7289 250.005 59.5701 250.005 59.3603C250.005 59.1845 249.97 59.0484 249.901 58.9463C249.833 58.8442 249.747 58.7648 249.638 58.7081C249.529 58.6514 249.403 58.6117 249.265 58.5947C249.128 58.5776 248.984 58.5663 248.852 58.5663H247.775V60.2166H248.629ZM248.984 57.9198C249.609 57.9198 250.068 58.0389 250.371 58.2884C250.669 58.5323 250.819 58.9066 250.819 59.4056C250.819 59.8707 250.687 60.2109 250.423 60.4321C250.159 60.6476 249.833 60.7781 249.443 60.8178L250.939 63.1089H250.062L248.635 60.8801H247.769V63.1089H246.955V57.9255H248.984V57.9198ZM245.287 62.003C245.476 62.4681 245.734 62.8651 246.067 63.2053C246.399 63.5456 246.789 63.8121 247.242 64.005C247.695 64.1978 248.182 64.2942 248.709 64.2942C249.231 64.2942 249.712 64.1978 250.159 64.005C250.606 63.8121 250.996 63.5456 251.329 63.2053C251.661 62.8651 251.919 62.4681 252.108 62.003C252.297 61.538 252.389 61.0333 252.389 60.4888C252.389 59.9614 252.292 59.468 252.108 59.0087C251.919 58.5493 251.661 58.1523 251.329 57.8177C250.996 57.4831 250.606 57.2166 250.159 57.0237C249.712 56.8309 249.231 56.7345 248.709 56.7345C248.182 56.7345 247.689 56.8309 247.242 57.0237C246.789 57.2166 246.399 57.4831 246.067 57.8177C245.734 58.1523 245.476 58.5493 245.287 59.0087C245.098 59.4623 245.006 59.9614 245.006 60.4888C245.006 61.0333 245.104 61.538 245.287 62.003ZM244.553 58.7478C244.794 58.209 245.115 57.744 245.534 57.347C245.946 56.95 246.422 56.6438 246.972 56.4169C247.523 56.1901 248.102 56.0767 248.715 56.0767C249.328 56.0767 249.907 56.1901 250.452 56.4169C250.996 56.6438 251.472 56.95 251.879 57.347C252.286 57.744 252.613 58.209 252.848 58.7478C253.088 59.2865 253.209 59.8707 253.209 60.4888C253.209 61.1297 253.088 61.7195 252.848 62.2639C252.607 62.8083 252.286 63.2734 251.879 63.676C251.472 64.0787 250.996 64.3849 250.452 64.6061C249.907 64.8273 249.328 64.9407 248.715 64.9407C248.102 64.9407 247.517 64.833 246.972 64.6061C246.428 64.3849 245.946 64.073 245.534 63.676C245.121 63.2791 244.794 62.8083 244.553 62.2639C244.313 61.7195 244.192 61.1297 244.192 60.4888C244.192 59.8707 244.313 59.2865 244.553 58.7478Z" fill="white"/>
<path d="M123.082 55.3506C122.125 56.1729 120.766 56.706 119.557 56.7117C118.026 56.7174 116.72 55.878 116.714 53.689C116.697 48.256 124.171 43.3788 129.152 43.4128C128.052 47.6832 127.198 51.8288 123.082 55.3506ZM216.954 55.9121C209.801 53.8875 206.115 49.4016 204.682 45.3523C207.026 43.4071 209.932 41.6831 212.787 39.8116C214.443 38.7227 214.902 37.6055 215.567 35.8815C216.369 33.8002 217.178 30.8568 217.218 29.3766C217.252 28.3048 217.166 27.4768 215.785 27.5222C214.455 27.5675 209.835 30.5279 208.706 31.2878C202.389 35.5469 197.007 40.7473 192.353 46.7361C194.456 38.3031 196.864 25.8662 197.89 19.5542C198.222 17.5182 198.772 14.745 197.637 12.8622C196.76 11.416 194.296 8.57478 192.358 7.48592C190.501 6.44809 189.544 7.67874 189.2 9.35173C187.956 15.4312 187.257 18.7772 186.237 23.7508C184.781 30.8228 183.485 36.4543 180.258 44.3712C178.441 48.8288 174.343 56.7004 169.729 56.7174C165.229 56.7344 166.845 45.9365 166.834 43.0101C166.828 41.9723 166.662 39.443 164.18 38.8929C155.88 37.0441 154.631 34.3786 152.991 34.6678C151.971 34.8493 151.375 35.7737 150.956 37.1405C149.306 42.5735 148.394 47.4677 145.167 52.3165C143.665 54.568 140.891 57.2391 138.765 57.2448C136.627 57.2505 135.899 55.362 135.899 53.4735C135.899 48.1709 137.389 42.7663 138.071 39.7379C138.581 37.4808 137.349 37.0781 136.168 36.7378C134.655 36.3011 132.769 36.2388 132.075 36.2388C125.638 36.2614 119.672 38.3087 114.696 42.3466C112.616 44.0366 110.948 46.1009 109.234 48.1369C107.348 50.3827 101.771 57.1824 98.429 57.1937C96.1075 57.1994 95.8496 54.6077 95.8439 52.8326C95.8152 44.9894 99.6613 33.0345 102.493 25.8775C104.373 21.1194 106.368 16.815 106.981 14.28C107.485 12.1873 106.924 10.3215 105.754 8.76193C104.19 6.67494 102.459 5.21178 100.894 4.49721C99.7932 3.99248 98.727 4.29305 97.9819 5.33087C96.7552 7.04357 95.1503 10.5257 94.514 11.8924C89.5502 22.5486 85.813 34.9741 85.8588 46.7531C85.8817 53.0708 86.5925 64.6343 95.3337 64.6003C100.149 64.5833 104.362 61.691 107.434 58.2146C108.036 62.3035 111.309 64.6116 115.866 64.6003C120.887 64.5833 125.455 61.742 128.522 57.9764C129.519 62.139 132.815 64.6116 137.114 64.6003C147.449 64.5606 153.582 53.3147 156.322 44.893C156.648 45.1028 157.193 45.2503 157.193 45.2503C157.113 46.22 157.05 47.7002 157.05 48.8685C157.061 55.4867 158.654 64.6343 167.367 64.606C174.801 64.5776 179.582 57.7609 183.004 52.1237H183.21C182.608 55.9574 181.817 59.0652 181.554 62.984C181.439 64.6684 183.858 64.5152 184.935 64.5152C190.243 64.5152 190.025 63.2676 191.441 58.7873C192.375 55.8497 194.605 53.6606 196.823 51.619C197.947 53.9782 200.435 57.982 204.114 61.0388C206.379 62.9216 209.56 64.5436 212.334 64.5379C213.538 64.5322 214.134 64.3791 215.051 63.6759C216.965 62.2071 218.467 59.0709 218.639 57.948C218.794 56.8818 217.894 56.1786 216.954 55.9121Z" fill="white"/>
<path d="M244.496 50.0196C244.811 54.9308 241.074 58.532 236.041 61.2201C230.757 64.0444 224.663 65.5416 220.112 65.1503C219.138 65.0652 218.507 64.4017 218.719 62.9782C218.92 61.6511 219.367 60.4715 219.866 59.5074C220.559 58.1691 221.574 57.2617 223.534 57.0405C224.755 56.9044 227.26 56.8533 229.364 56.2068C231.817 55.4526 234.391 54.3127 234.391 52.2824C234.391 48.6869 218.421 50.7341 218.421 43.6735C218.421 36.5165 230.338 33.1592 234.969 31.8718C237.056 31.2934 239.446 30.9814 240.369 30.9814C241.487 30.9814 241.957 31.696 241.75 32.6658C241.286 34.8095 240.3 37.4296 237.899 38.025C236.838 38.2916 231.181 39.4031 229.318 40.2992C228.739 40.5771 228.412 40.9741 228.418 41.371C228.418 41.8701 229.031 42.165 230.046 42.4259C234.156 43.4694 244.112 43.9968 244.496 50.0196Z" fill="white"/>
<path d="M83.3596 64.3905C81.7489 64.3905 80.23 64.1977 78.6365 63.9935C73.065 63.279 67.9522 62.8706 62.9023 62.8706C52.5963 62.8706 44.5486 63.8461 35.4349 65.2128C28.3158 66.279 22.3087 67.0333 16.7774 67.1977C8.96476 67.4359 0.791016 65.882 0.791016 56.4565C0.791016 45.4034 13.1605 31.7813 24.8193 22.5486C36.1055 13.6108 48.5151 7.27612 56.5399 4.07758C61.8935 1.93954 68.4394 0 72.5205 0C76.4526 0 75.8393 3.43673 72.9504 8.3423C70.2335 12.9643 69.0068 14.1439 65.2066 14.6146C58.6034 15.4369 49.1342 16.2309 31.1416 29.836C20.8987 37.5772 11.5957 48.3071 11.7562 53.8365C11.8594 57.3356 14.4846 58.4585 17.7002 58.4585C22.4176 58.4585 27.7655 57.4603 34.5235 56.241C45.1276 54.3298 58.3397 51.619 69.4597 51.619C72.4575 51.619 75.2661 51.9423 77.8054 52.5831C79.7542 53.0765 80.998 54.1881 82.2648 55.8327C83.2966 57.1711 84.2079 58.7193 84.9072 60.1258C85.5435 61.4075 86.0823 62.7005 85.6696 63.5228C85.4002 64.0559 84.7811 64.3905 83.3596 64.3905Z" fill="white"/>
</svg>
