<svg width="100" height="100" viewBox="0 0 100 100" fill="none" xmlns="http://www.w3.org/2000/svg">
<g opacity="0.4" clip-path="url(#clip0_301_41)">
<path d="M49.9388 -0.0611819C50.1279 -0.060761 50.3171 -0.0603401 50.5119 -0.0599064C53.3082 -0.0499298 56.0405 0.0255364 58.7889 0.585791C58.9893 0.625633 59.1897 0.665476 59.3962 0.706526C66.4399 2.1399 73.0413 4.79145 78.9061 8.98423C79.0302 9.07169 79.1544 9.15915 79.2823 9.24925C81.2639 10.6525 83.0519 12.2046 84.7889 13.8997C85.1375 14.2395 85.489 14.5761 85.8412 14.9123C87.3264 16.3457 88.6077 17.8804 89.8436 19.5311C90.0136 19.7555 90.1837 19.9798 90.354 20.204C91.4772 21.6887 91.4772 21.6887 91.992 22.4608C91.9927 22.3223 91.9934 22.1839 91.9942 22.0412C92.0016 20.731 92.0127 19.4209 92.0279 18.1107C92.0356 17.4373 92.0419 16.7639 92.0449 16.0904C92.0485 15.3147 92.0582 14.539 92.0683 13.7633C92.0685 13.5236 92.0688 13.2838 92.069 13.0368C92.0946 11.5326 92.2174 10.331 93.3233 9.21082C93.4359 9.14007 93.5484 9.06933 93.6644 8.99644C93.7774 8.92216 93.8905 8.84789 94.0069 8.77137C95.1044 8.17806 96.5485 8.20382 97.7324 8.52494C98.7102 8.96159 99.2986 9.611 99.8045 10.5467C100.035 11.2368 100.029 11.7898 100.034 12.5184C100.036 12.7291 100.036 12.7291 100.038 12.9441C100.042 13.4097 100.044 13.8752 100.046 14.3408C100.047 14.5006 100.048 14.6605 100.049 14.8251C100.053 15.6729 100.056 16.5208 100.057 17.3686C100.06 18.2378 100.066 19.1069 100.074 19.976C100.079 20.6495 100.081 21.323 100.082 21.9965C100.082 22.3164 100.085 22.6363 100.088 22.9562C100.13 26.8343 99.0919 30.1148 96.356 32.9726C93.4178 35.7051 90.0438 36.4218 86.1609 36.4127C85.8261 36.4136 85.4914 36.4146 85.1566 36.4158C84.4588 36.4175 83.761 36.417 83.0632 36.4151C82.172 36.4128 81.281 36.4168 80.3898 36.4225C79.7 36.4261 79.0102 36.426 78.3203 36.4249C77.9918 36.4249 77.6633 36.4261 77.3348 36.4285C74.1568 36.4487 74.1568 36.4487 72.8514 35.5467C71.9059 34.5923 71.4842 33.5546 71.4842 32.2264C71.6141 31.0613 72.0418 30.1438 72.8514 29.2967C74.2319 28.3976 75.4692 28.3981 77.0872 28.3965C77.3408 28.3932 77.5943 28.39 77.8556 28.3867C78.5247 28.3782 79.1938 28.3742 79.863 28.3713C80.5478 28.3675 81.2326 28.3593 81.9174 28.3514C83.2573 28.3368 84.5973 28.3269 85.9373 28.3202C85.6261 27.8505 85.3145 27.3811 85.0027 26.9118C84.9152 26.7796 84.8277 26.6475 84.7375 26.5113C84.074 25.5135 83.3798 24.5574 82.617 23.6327C82.4566 23.4363 82.2962 23.2399 82.131 23.0376C75.3428 14.8126 65.3513 9.5475 54.7735 8.28004C44.3429 7.34952 33.5702 9.70841 25.1951 16.2108C24.9683 16.3803 24.7412 16.5494 24.5138 16.7181C23.4808 17.4901 22.4912 18.2715 21.6024 19.2107C21.2551 19.5656 20.8867 19.8819 20.5076 20.2025C19.709 20.8938 19.0334 21.6497 18.3592 22.4608C18.2293 22.6126 18.0994 22.7644 17.9655 22.9208C17.4994 23.475 17.0468 24.0384 16.6014 24.6092C16.5145 24.72 16.4277 24.8308 16.3382 24.945C12.4749 29.9476 10.093 35.8489 8.78888 41.992C8.75385 42.1507 8.71883 42.3093 8.68274 42.4727C6.53396 52.6127 9.10128 63.8018 14.522 72.4941C15.0505 73.2918 15.6241 74.0489 16.2108 74.8045C16.3803 75.0313 16.5494 75.2584 16.7181 75.4858C17.4901 76.5189 18.2714 77.5085 19.2106 78.3972C19.5655 78.7445 19.8818 79.1129 20.2025 79.492C20.8937 80.2906 21.6496 80.9662 22.4608 81.6405C22.6126 81.7704 22.7644 81.9003 22.9208 82.0342C23.475 82.5003 24.0383 82.9529 24.6092 83.3983C24.72 83.4852 24.8308 83.572 24.945 83.6615C32.5555 89.5387 42.035 92.0807 51.541 91.9821C51.8838 91.979 51.8838 91.979 52.2336 91.9759C52.6801 91.9705 53.1267 91.9622 53.5732 91.9506C54.9211 91.9312 55.8253 92.0012 56.8518 92.9564C56.9633 93.0893 57.0748 93.2223 57.1898 93.3592C57.3038 93.4922 57.4179 93.6251 57.5354 93.7621C58.2653 94.7594 58.149 96.0921 58.0076 97.2655C57.4971 98.5326 56.7019 99.2663 55.4686 99.8045C54.5349 100.06 53.5928 100.035 52.632 100.04C52.4503 100.041 52.2687 100.042 52.0816 100.044C51.4935 100.047 50.9054 100.048 50.3172 100.049C50.1173 100.049 49.9174 100.049 49.7114 100.049C46.8299 100.046 44.0458 99.9708 41.2108 99.4139C41.0358 99.3825 40.8609 99.351 40.6807 99.3186C31.171 97.5982 22.377 93.0194 15.4295 86.328C15.3007 86.2045 15.1719 86.0811 15.0393 85.9538C13.1861 84.1678 11.4791 82.3519 9.96076 80.2733C9.79317 80.0485 9.62557 79.8237 9.45798 79.5989C8.27877 77.9993 7.22744 76.3386 6.24982 74.6092C6.17127 74.4711 6.09271 74.333 6.01178 74.1907C3.4695 69.6751 1.76377 64.7632 0.720033 59.6922C0.676862 59.4841 0.676862 59.4841 0.632819 59.2717C0.0495368 56.2166 -0.0733869 53.1626 -0.061217 50.0609C-0.060861 49.8719 -0.060505 49.683 -0.0601382 49.4883C-0.0512655 46.6889 0.0481266 43.9651 0.585756 41.2108C0.632915 40.948 0.632915 40.948 0.681028 40.6799C2.40173 31.1706 6.98049 22.3768 13.6717 15.4295C13.7952 15.3008 13.9186 15.172 14.0458 15.0393C15.8318 13.1861 17.6477 11.4791 19.7264 9.96079C19.9512 9.7932 20.176 9.62561 20.4008 9.45801C22.0004 8.2788 23.661 7.22748 25.3904 6.24985C25.5286 6.1713 25.6667 6.09275 25.809 6.01182C30.3245 3.46953 35.2365 1.76381 40.3074 0.720068C40.5156 0.676897 40.5156 0.676897 40.728 0.632855C43.783 0.0495882 46.8371 -0.073648 49.9388 -0.0611819Z" fill="#999999"/>
<path d="M52.0386 15.1489C52.9953 15.7071 53.5607 16.5416 53.9062 17.5781C53.9259 18.0229 53.9335 18.4682 53.935 18.9134C53.9357 19.05 53.9364 19.1866 53.9372 19.3273C53.9393 19.7861 53.9401 20.2449 53.9408 20.7037C53.942 21.0322 53.9433 21.3607 53.9447 21.6892C53.9488 22.7692 53.9508 23.8491 53.9528 24.9291C53.9536 25.3009 53.9544 25.6728 53.9552 26.0446C53.9589 27.7918 53.9617 29.539 53.9633 31.2862C53.9652 33.3024 53.9704 35.3186 53.9783 37.3348C53.9842 38.8935 53.987 40.4522 53.9877 42.0109C53.9881 42.9417 53.9899 43.8724 53.9948 44.8032C53.9994 45.6793 54.0002 46.5553 53.9982 47.4315C53.9981 47.7524 53.9993 48.0733 54.002 48.3942C54.0187 50.5105 53.9052 51.9054 52.4396 53.5176C52.1637 53.7976 51.8856 54.0755 51.6057 54.3516C51.4535 54.5049 51.3013 54.6582 51.1445 54.8161C50.6436 55.3194 50.1399 55.8199 49.6361 56.3202C49.2856 56.6707 48.9353 57.0213 48.5852 57.372C47.852 58.1054 47.1175 58.8375 46.382 59.5685C45.5339 60.4114 44.6882 61.2568 43.8438 62.1034C43.0284 62.9209 42.2114 63.7368 41.3936 64.5518C41.047 64.8975 40.7009 65.2435 40.3552 65.59C39.8715 66.0743 39.3859 66.5567 38.8997 67.0386C38.758 67.1812 38.6162 67.3239 38.4701 67.4709C37.3403 68.5844 36.2673 69.4364 34.6352 69.5503C33.2635 69.4929 32.1948 68.9361 31.25 67.9688C30.5676 66.9335 30.3639 65.8257 30.5267 64.6042C31.0763 62.5023 32.8536 61.2418 34.5995 60.1479C39.2353 57.2292 44.8172 53.0359 46.1046 47.4129C47.7305 39.2813 46.874 30.3108 46.3095 22.0959C46.2901 21.7995 46.2707 21.5031 46.2514 21.2067C46.216 20.6616 46.1747 20.1175 46.1296 19.5731C46.0326 18.1307 46.0648 17.2328 46.875 16.0156C47.2298 15.6563 47.2298 15.6563 47.5708 15.4419C47.6838 15.3676 47.7969 15.2934 47.9133 15.2169C49.1108 14.5695 50.8076 14.5992 52.0386 15.1489Z" fill="#999999"/>
<path d="M89.3311 73.9625C90.282 74.8002 91.0945 75.6474 91.2605 76.9524C91.3819 79.2108 90.0665 80.5927 88.6475 82.1809C88.5511 82.2879 88.4548 82.395 88.3555 82.5053C88.1121 82.7827 87.8822 83.0718 87.6541 83.3619C86.9891 84.175 86.1883 84.4007 85.1807 84.546C83.9167 84.6371 82.9725 84.2937 81.9702 83.5328C81.0317 82.5942 80.6691 81.5979 80.6641 80.2735C80.7813 78.9636 81.4062 78.1346 82.2266 77.1485C82.365 76.972 82.5035 76.7955 82.6462 76.6137C84.4249 74.3706 86.3254 72.4597 89.3311 73.9625Z" fill="#999999"/>
<path d="M97.1191 56.1522C98.0327 56.6711 98.8241 57.544 99.132 58.5624C99.4523 60.1217 99.1256 61.6049 98.706 63.1102C98.6599 63.2932 98.6138 63.4763 98.5663 63.6649C98.1558 65.1702 97.5222 66.4508 96.1547 67.285C95.0524 67.7571 93.8585 67.7875 92.7138 67.4422C91.5769 66.9316 90.889 66.2032 90.3686 65.0633C90.0261 63.5066 90.3585 62.1552 90.7592 60.6444C90.8069 60.4503 90.8546 60.2561 90.9038 60.0562C91.2651 58.6712 91.6924 57.3927 92.8367 56.4696C94.2852 55.78 95.5978 55.5072 97.1191 56.1522Z" fill="#999999"/>
<path d="M74.2883 86.519C75.3389 87.1122 76.0961 87.9457 76.5626 89.0626C76.7148 90.3014 76.7151 91.5407 76.0583 92.6324C75.4898 93.323 74.8025 93.716 74.0235 94.1407C73.8927 94.2127 73.7618 94.2846 73.627 94.3587C73.1756 94.6042 72.7214 94.8434 72.2657 95.0807C72.1198 95.1583 71.9739 95.236 71.8235 95.316C70.6537 95.9057 69.5412 96.2176 68.2282 96.0122C66.8947 95.5184 65.9873 94.9618 65.3764 93.6357C65.033 92.4946 65.088 91.3055 65.4298 90.1734C67.1591 87.8496 71.3932 85.3187 74.2883 86.519Z" fill="#999999"/>
</g>
<defs>
<clipPath id="clip0_301_41">
<rect width="100" height="100" fill="white"/>
</clipPath>
</defs>
</svg>
