<svg width="102" height="102" viewBox="0 0 102 102" fill="none" xmlns="http://www.w3.org/2000/svg">
<g opacity="0.4">
<path d="M50.9144 0.939062C51.1983 0.939694 51.1983 0.939694 51.4879 0.940338C62.3495 0.979064 72.869 4.44537 81.4686 11.1563C81.6436 11.29 81.8186 11.4237 81.9988 11.5615C85.0378 13.9283 87.8965 16.7075 90.2577 19.7501C90.4067 19.9326 90.5558 20.1152 90.7093 20.3032C95.991 26.8968 99.3498 35.0579 100.609 43.3829C100.644 43.6026 100.678 43.8222 100.714 44.0485C101.037 46.3052 101.07 48.5401 101.061 50.817C101.06 51.1088 101.06 51.1088 101.06 51.4065C101.051 54.241 100.962 57.0007 100.414 59.7892C100.382 59.9641 100.351 60.139 100.319 60.3192C98.7778 68.8362 94.9322 76.8709 89.2811 83.422C89.1572 83.5675 89.0334 83.713 88.9057 83.863C86.5989 86.5006 84.1085 88.9755 81.2733 91.0392C81.0487 91.2064 80.8241 91.3738 80.5996 91.5412C78.9997 92.721 77.3365 93.7677 75.6092 94.7501C75.4858 94.8213 75.3624 94.8925 75.2353 94.9658C70.1515 97.8756 64.4058 99.7595 58.617 100.609C58.3822 100.644 58.1473 100.678 57.9054 100.714C55.617 101.027 53.3438 101.078 51.0365 101.073C50.8437 101.073 50.651 101.073 50.4524 101.073C37.766 101.036 25.5759 96.1375 16.4295 87.3282C16.3007 87.2048 16.172 87.0813 16.0393 86.9541C14.1861 85.1681 12.4791 83.3522 10.9608 81.2735C10.7932 81.0487 10.6256 80.8239 10.458 80.5991C9.27868 78.9993 8.23208 77.3364 7.24984 75.6095C7.17865 75.4861 7.10747 75.3627 7.03412 75.2355C4.11806 70.1408 2.26667 64.4111 1.39047 58.6173C1.33873 58.2884 1.33873 58.2884 1.28594 57.953C0.962331 55.6848 0.921965 53.4353 0.9266 51.1466C0.926707 50.9489 0.926813 50.7513 0.926922 50.5476C0.934881 47.3182 1.1153 44.209 1.78109 41.0392C1.82191 40.8409 1.86273 40.6426 1.90478 40.4382C3.61922 32.3695 7.33068 24.8242 12.7186 18.5782C12.8425 18.4327 12.9663 18.2872 13.094 18.1372C15.4008 15.4996 17.8912 13.0247 20.7264 10.961C20.951 10.7938 21.1756 10.6264 21.4001 10.459C23 9.27921 24.6632 8.23251 26.3905 7.2501C26.5139 7.17891 26.6373 7.10772 26.7644 7.03438C31.8482 4.12456 37.5938 2.24095 43.3827 1.39072C43.7358 1.33877 43.7358 1.33877 44.0961 1.28577C46.3687 0.974189 48.623 0.929876 50.9144 0.939062ZM31.8378 14.0819C31.4647 14.2835 31.0888 14.4789 30.7125 14.6743C27.649 16.2972 24.8637 18.3988 22.3921 20.8257C22.0861 21.1246 21.7751 21.4178 21.4634 21.7109C18.0122 25.0008 15.2768 29.0924 13.3045 33.422C13.2388 33.5654 13.1732 33.7089 13.1055 33.8567C8.49899 44.039 8.21116 55.4332 12.113 65.9047C12.6812 67.371 13.3331 68.7798 14.0817 70.1622C14.2832 70.5352 14.4786 70.9111 14.674 71.2874C16.3899 74.527 18.6381 77.3788 21.2029 79.9862C21.4776 80.2664 21.7478 80.5511 22.0173 80.8364C23.2992 82.1707 24.7141 83.2965 26.1952 84.3985C26.3915 84.5451 26.5879 84.6916 26.7902 84.8426C33.1191 89.3843 41.0093 92.3883 48.8514 92.6017C48.9967 92.6067 49.1421 92.6117 49.2918 92.6169C60.7823 92.9756 71.4855 88.7788 79.8556 80.9557C87.6992 73.4662 92.3277 62.9203 92.6373 52.088C92.8299 41.1359 88.8676 30.4237 81.2626 22.4929C81.167 22.3943 81.0714 22.2957 80.9729 22.1941C80.691 21.9023 80.4137 21.6066 80.1365 21.3103C76.9112 17.9156 72.8259 15.2398 68.578 13.3048C68.4345 13.2391 68.2911 13.1734 68.1433 13.1058C56.6657 7.91329 42.9998 8.03737 31.8378 14.0819Z" fill="#999999"/>
<path d="M42.2112 35.9609C42.9129 36.6146 43.5884 37.2925 44.2627 37.9743C44.4528 38.1651 44.6429 38.3559 44.8332 38.5465C45.3282 39.043 45.822 39.5406 46.3156 40.0386C46.8216 40.5486 47.3288 41.0576 47.8359 41.5666C48.8267 42.5616 49.8162 43.5577 50.8049 44.5547C51.5053 44.2582 51.947 43.8473 52.4779 43.3074C52.6533 43.1301 52.8287 42.9527 53.0094 42.77C53.1023 42.6752 53.1952 42.5804 53.2908 42.4828C53.5832 42.1845 53.8768 41.8876 54.1708 41.591C55.0064 40.7478 55.8394 39.9021 56.6718 39.0557C57.1818 38.5373 57.6932 38.0204 58.2055 37.5043C58.3996 37.3082 58.5931 37.1115 58.786 36.9142C60.2025 35.4656 61.3623 34.2936 63.4514 34.1543C64.7513 34.1737 65.899 34.6487 66.8205 35.5703C67.6541 36.7755 67.9284 37.8231 67.7971 39.2812C67.1415 42.307 63.2201 45.0524 61.1198 47.1426C60.7626 47.4988 60.4054 47.8551 60.0483 48.2115C59.1812 49.0764 58.3136 49.9408 57.4455 50.8047C57.7401 51.497 58.1416 51.9366 58.6749 52.4628C58.935 52.721 58.935 52.721 59.2004 52.9844C59.3394 53.121 59.3394 53.121 59.4813 53.2604C59.7729 53.547 60.0632 53.8349 60.3533 54.123C61.0742 54.8387 61.7971 55.5522 62.5201 56.2658C63.1309 56.8689 63.7409 57.4728 64.3499 58.0778C64.6347 58.3601 64.9206 58.6412 65.2067 58.9222C65.3813 59.0956 65.556 59.2689 65.7359 59.4476C65.8891 59.5987 66.0424 59.7499 66.2002 59.9057C67.264 61.0805 67.6903 62.1309 67.7971 63.6953C67.6899 64.9968 67.0977 66.0044 66.1369 66.8691C64.9768 67.6812 63.8414 67.9249 62.4382 67.6992C60.5227 67.1783 59.0864 65.3895 57.7377 64.0257C57.5477 63.8349 57.3575 63.6441 57.1672 63.4535C56.6722 62.957 56.1784 62.4594 55.6848 61.9614C55.1788 61.4514 54.6716 60.9424 54.1645 60.4334C53.1737 59.4384 52.1842 58.4423 51.1955 57.4453C50.4967 57.741 50.0593 58.1488 49.5318 58.6895C49.2716 58.9546 49.2716 58.9546 49.0061 59.225C48.9141 59.3194 48.8222 59.4139 48.7275 59.5113C48.4376 59.8089 48.1463 60.105 47.8544 60.4007C47.025 61.2414 46.1974 62.084 45.3729 62.9296C44.8675 63.4476 44.3598 63.9631 43.8505 64.4772C43.6582 64.6722 43.4668 64.8682 43.2764 65.0651C41.9028 66.4851 40.5375 67.7901 38.4758 67.8945C37.0867 67.8076 36.1562 67.4943 35.2043 66.4541C34.4791 65.594 34.1462 64.7865 34.1179 63.6587C34.1101 63.4908 34.1023 63.3228 34.0942 63.1498C34.4534 61.088 35.8878 59.73 37.326 58.3288C37.5351 58.1216 37.7438 57.9142 37.9524 57.7066C38.4971 57.1656 39.0446 56.6277 39.5929 56.0903C40.1537 55.5395 40.7118 54.9859 41.2701 54.4325C42.3623 53.3506 43.4576 52.272 44.5549 51.1953C44.2603 50.503 43.8589 50.0634 43.3255 49.5372C43.0654 49.279 43.0654 49.279 42.8 49.0156C42.661 48.879 42.661 48.879 42.5192 48.7396C42.2275 48.453 41.9372 48.1651 41.6471 47.877C40.9262 47.1613 40.2033 46.4478 39.4804 45.7342C38.8695 45.1311 38.2595 44.5272 37.6506 43.9222C37.3658 43.6399 37.0798 43.3588 36.7937 43.0778C36.6191 42.9044 36.4445 42.7311 36.2645 42.5524C36.0347 42.3257 36.0347 42.3257 35.8002 42.0943C34.7364 40.9195 34.3102 39.8691 34.2033 38.3047C34.3105 37.0032 34.9027 35.9956 35.8635 35.1309C38.1593 33.5238 40.2408 34.2933 42.2112 35.9609Z" fill="#999999"/>
</g>
</svg>
