<svg width="115" height="115" viewBox="0 0 115 115" fill="none" xmlns="http://www.w3.org/2000/svg">
<g opacity="0.4">
<path d="M28.7498 95.8334C26.1144 95.8334 23.8591 94.8958 21.984 93.0207C20.1089 91.1456 19.1697 88.8887 19.1665 86.2501V76.6667C19.1665 75.3091 19.6265 74.1719 20.5465 73.2551C21.4665 72.3383 22.6037 71.8783 23.9582 71.8751C25.3126 71.8719 26.4514 72.3319 27.3746 73.2551C28.2978 74.1783 28.7562 75.3155 28.7498 76.6667V86.2501H86.2498V76.6667C86.2498 75.3091 86.7098 74.1719 87.6298 73.2551C88.5498 72.3383 89.6871 71.8783 91.0415 71.8751C92.3959 71.8719 93.5348 72.3319 94.458 73.2551C95.3811 74.1783 95.8396 75.3155 95.8332 76.6667V86.2501C95.8332 88.8855 94.8956 91.1424 93.0205 93.0207C91.1453 94.899 88.8884 95.8366 86.2498 95.8334H28.7498ZM52.7082 37.6147L43.7238 46.599C42.7655 47.5574 41.6282 48.0174 40.3121 47.979C38.996 47.9407 37.8572 47.4408 36.8957 46.4792C36.0172 45.5209 35.5572 44.4028 35.5157 43.1251C35.4741 41.8473 35.9341 40.7292 36.8957 39.7709L54.1457 22.5209C54.6248 22.0417 55.1439 21.7031 55.703 21.5051C56.262 21.307 56.8609 21.2064 57.4998 21.2032C58.1387 21.2 58.7377 21.3006 59.2967 21.5051C59.8557 21.7095 60.3748 22.0481 60.854 22.5209L78.104 39.7709C79.0623 40.7292 79.5223 41.8473 79.484 43.1251C79.4457 44.4028 78.9857 45.5209 78.104 46.4792C77.1457 47.4376 76.0084 47.9375 74.6923 47.979C73.3762 48.0206 72.2374 47.5606 71.2759 46.599L62.2915 37.6147V71.8751C62.2915 73.2327 61.8315 74.3715 60.9115 75.2915C59.9915 76.2115 58.8543 76.6699 57.4998 76.6667C56.1454 76.6635 55.0082 76.2035 54.0882 75.2867C53.1682 74.3699 52.7082 73.2327 52.7082 71.8751V37.6147Z" fill="#999999"/>
</g>
</svg>
